<svg width="31" height="30" viewBox="0 0 31 30" fill="none" xmlns="http://www.w3.org/2000/svg">
<path d="M6.98926 15.0001C6.98926 14.661 7.12395 14.3358 7.3637 14.0961C7.60344 13.8563 7.92861 13.7216 8.26767 13.7216H14.2216V7.76767C14.2216 7.42861 14.3563 7.10344 14.5961 6.8637C14.8358 6.62395 15.161 6.48926 15.5001 6.48926C15.8391 6.48926 16.1643 6.62395 16.404 6.8637C16.6438 7.10344 16.7785 7.42861 16.7785 7.76767V13.7216H22.7324C23.0715 13.7216 23.3967 13.8563 23.6364 14.0961C23.8762 14.3358 24.0109 14.661 24.0109 15.0001C24.0109 15.3391 23.8762 15.6643 23.6364 15.904C23.3967 16.1438 23.0715 16.2785 22.7324 16.2785H16.7785V22.2324C16.7785 22.5715 16.6438 22.8967 16.404 23.1364C16.1643 23.3762 15.8391 23.5109 15.5001 23.5109C15.161 23.5109 14.8358 23.3762 14.5961 23.1364C14.3563 22.8967 14.2216 22.5715 14.2216 22.2324V16.2785H8.26767C7.92861 16.2785 7.60344 16.1438 7.3637 15.904C7.12395 15.6643 6.98926 15.3391 6.98926 15.0001Z" fill="#F4F4F4"/>
<path fill-rule="evenodd" clip-rule="evenodd" d="M7.51778 0.969446C12.8231 0.381278 18.1772 0.381278 23.4826 0.969446C26.5968 1.31717 29.111 3.77001 29.4757 6.90126C30.1064 12.2825 30.1064 17.7183 29.4757 23.0996C29.1093 26.2308 26.5951 28.6819 23.4826 29.0314C18.1772 29.6195 12.8231 29.6195 7.51778 29.0314C4.40358 28.6819 1.88938 26.2308 1.5246 23.0996C0.896747 17.7184 0.896747 12.2824 1.5246 6.90126C1.88938 3.77001 4.40528 1.31717 7.51778 0.969446ZM23.1996 3.50922C18.0823 2.94199 12.918 2.94199 7.80074 3.50922C6.85342 3.61431 5.96921 4.03571 5.29093 4.70533C4.61265 5.37494 4.17993 6.25367 4.06267 7.19956C3.45642 12.383 3.45642 17.6195 4.06267 22.803C4.18029 23.7485 4.61316 24.6269 5.29141 25.2962C5.96966 25.9654 6.85368 26.3866 7.80074 26.4916C12.8752 27.0575 18.1252 27.0575 23.1996 26.4916C24.1464 26.3862 25.03 25.9649 25.7079 25.2957C26.3858 24.6264 26.8184 23.7483 26.936 22.803C27.5422 17.6195 27.5422 12.383 26.936 7.19956C26.8181 6.25455 26.3853 5.3768 25.7074 4.70789C25.0295 4.03899 24.1461 3.61793 23.1996 3.51263" fill="#F4F4F4"/>
</svg>
