<svg width="28" height="28" viewBox="0 0 28 28" fill="none" xmlns="http://www.w3.org/2000/svg">
<path d="M8.81059 15.1667L9.79875 12.6992L10.7846 15.1667H8.81059ZM18.6666 14H19.8333V16.3333H18.6666C18.3572 16.3333 18.0604 16.2104 17.8416 15.9916C17.6228 15.7728 17.4999 15.4761 17.4999 15.1667C17.4999 14.8572 17.6228 14.5605 17.8416 14.3417C18.0604 14.1229 18.3572 14 18.6666 14ZM24.4999 3.5H3.49992C3.1905 3.5 2.89375 3.62292 2.67496 3.84171C2.45617 4.0605 2.33325 4.35725 2.33325 4.66667V23.3333C2.33325 23.6428 2.45617 23.9395 2.67496 24.1583C2.89375 24.3771 3.1905 24.5 3.49992 24.5H24.4999C24.8093 24.5 25.1061 24.3771 25.3249 24.1583C25.5437 23.9395 25.6666 23.6428 25.6666 23.3333V4.66667C25.6666 4.35725 25.5437 4.0605 25.3249 3.84171C25.1061 3.62292 24.8093 3.5 24.4999 3.5ZM14.6976 18.6667H12.1834L11.7168 17.5H7.87842L7.41175 18.6667H4.89875L6.29759 15.169L6.29875 15.1667L8.63209 9.33333H10.9654L14.6976 18.6667ZM19.8333 9.33333H22.1666V18.6667H18.6666C17.7383 18.6667 16.8481 18.2979 16.1917 17.6415C15.5353 16.9852 15.1666 16.0949 15.1666 15.1667C15.1666 14.2384 15.5353 13.3482 16.1917 12.6918C16.8481 12.0354 17.7383 11.6667 18.6666 11.6667H19.8333V9.33333Z" fill="#F4F4F4" fill-opacity="0.5"/>
</svg>
