<svg width="22" height="22" viewBox="0 0 22 22" fill="none" xmlns="http://www.w3.org/2000/svg">
<path fill-rule="evenodd" clip-rule="evenodd" d="M1.25 8.37593C1.25 9.56798 2.20927 10.5272 4.1278 12.4458L9.5542 17.8722C11.4728 19.7908 12.432 20.75 13.6241 20.75C14.8161 20.75 15.7754 19.7908 17.6939 17.8722L18.3722 17.1939C20.2907 15.2754 21.25 14.3161 21.25 13.1241C21.25 11.9321 20.2907 10.9728 18.3722 9.05428L12.9458 3.6278C11.0272 1.70927 10.068 0.75 8.87593 0.75C7.68391 0.75 6.72464 1.70927 4.80611 3.6278L4.1278 4.30611C2.20927 6.22464 1.25 7.18391 1.25 8.37593ZM8.72801 4.83697C9.0209 4.54408 9.0209 4.0692 8.72801 3.77631C8.43511 3.48342 7.96024 3.48342 7.66735 3.77631L4.27582 7.16783C3.98293 7.46073 3.98293 7.9356 4.27582 8.22849C4.56872 8.52139 5.04359 8.52139 5.33648 8.22849L8.72801 4.83697ZM15.9981 15.4989C16.56 14.9369 16.56 14.0259 15.9981 13.4639C15.4362 12.902 14.5251 12.902 13.9632 13.4639C13.4013 14.0259 13.4013 14.9369 13.9632 15.4989C14.5251 16.0608 15.4362 16.0608 15.9981 15.4989Z" fill="#F4F4F4"/>
<path fill-rule="evenodd" clip-rule="evenodd" d="M15.5107 0.624343C15.5802 0.215993 15.9675 -0.0587267 16.3759 0.0107433C19.5755 0.555063 22.0001 3.3712 22.0001 6.75012C22.0001 7.02758 21.8469 7.28238 21.6019 7.41251C21.3568 7.54265 21.0599 7.52686 20.8301 7.37146L19.3301 6.35744C18.9869 6.12546 18.8968 5.65922 19.1288 5.31606C19.3607 4.9729 19.827 4.88278 20.1701 5.11476L20.2697 5.18208C19.6927 3.27271 18.09 1.8239 16.1243 1.4895C15.716 1.42003 15.4413 1.03268 15.5107 0.624343Z" fill="#F4F4F4"/>
<path fill-rule="evenodd" clip-rule="evenodd" d="M6.98938 20.8758C6.91991 21.2842 6.53256 21.5589 6.12422 21.4894C2.92459 20.9451 0.5 18.1289 0.5 14.75C0.5 14.4726 0.65319 14.2178 0.89824 14.0876C1.14329 13.9575 1.44017 13.9733 1.67004 14.1287L3.17004 15.1427C3.5132 15.3747 3.60332 15.8409 3.37134 16.1841C3.13936 16.5272 2.67312 16.6174 2.32996 16.3854L2.23038 16.3181C2.80736 18.2274 4.41008 19.6762 6.37578 20.0106C6.78413 20.0801 7.05885 20.4675 6.98938 20.8758Z" fill="#F4F4F4"/>
</svg>
