<svg width="16" height="16" viewBox="0 0 16 16" fill="none" xmlns="http://www.w3.org/2000/svg">
<path d="M14.6472 3.12272C14.7642 3.00978 14.8576 2.87466 14.9218 2.72524C14.9861 2.57583 15.02 2.41511 15.0215 2.25247C15.023 2.08983 14.992 1.92851 14.9305 1.77795C14.869 1.62738 14.7781 1.49058 14.6632 1.37551C14.5482 1.26045 14.4115 1.16943 14.261 1.10777C14.1105 1.04611 13.9492 1.01504 13.7865 1.01637C13.6239 1.01771 13.4631 1.05142 13.3137 1.11555C13.1642 1.17967 13.029 1.27293 12.9159 1.38986L8.00646 6.2977L3.09862 1.38986C2.98648 1.26952 2.85125 1.17299 2.70099 1.10604C2.55074 1.03909 2.38854 1.00309 2.22407 1.00019C2.0596 0.997289 1.89623 1.02754 1.7437 1.08915C1.59118 1.15076 1.45263 1.24245 1.33631 1.35877C1.21999 1.47509 1.1283 1.61364 1.06669 1.76616C1.00508 1.91869 0.974828 2.08206 0.97773 2.24653C0.980632 2.411 1.01663 2.5732 1.08358 2.72345C1.15053 2.87371 1.24706 3.00894 1.3674 3.12108L6.27198 8.03055L1.36414 12.9384C1.14777 13.1706 1.02997 13.4777 1.03557 13.7951C1.04117 14.1124 1.16973 14.4152 1.39415 14.6396C1.61858 14.864 1.92135 14.9926 2.23869 14.9982C2.55603 15.0038 2.86315 14.886 3.09536 14.6696L8.00646 9.76177L12.9143 14.6712C13.1465 14.8876 13.4536 15.0054 13.771 14.9998C14.0883 14.9942 14.3911 14.8657 14.6155 14.6412C14.8399 14.4168 14.9685 14.114 14.9741 13.7967C14.9797 13.4794 14.8619 13.1722 14.6455 12.94L9.74095 8.03055L14.6472 3.12272Z" fill="#F4F4F4"/>
</svg>
