<svg width="32" height="32" viewBox="0 0 32 32" fill="none" xmlns="http://www.w3.org/2000/svg">
<path d="M6.66797 4.08594H25.3346C26.3955 4.08594 27.4129 4.50736 28.1631 5.25751C28.9132 6.00766 29.3346 7.02507 29.3346 8.08594V20.0859C29.3346 21.1468 28.9132 22.1642 28.1631 22.9144C27.4129 23.6645 26.3955 24.0859 25.3346 24.0859H6.66797C5.6071 24.0859 4.58969 23.6645 3.83954 22.9144C3.0894 22.1642 2.66797 21.1468 2.66797 20.0859L2.66797 8.08594C2.66797 7.02507 3.0894 6.00766 3.83954 5.25751C4.58969 4.50736 5.6071 4.08594 6.66797 4.08594ZM12.0013 25.4193H20.0013C20.3549 25.4193 20.6941 25.5597 20.9441 25.8098C21.1942 26.0598 21.3346 26.399 21.3346 26.7526C21.3346 27.1062 21.1942 27.4454 20.9441 27.6954C20.6941 27.9455 20.3549 28.0859 20.0013 28.0859H12.0013C11.6477 28.0859 11.3085 27.9455 11.0585 27.6954C10.8084 27.4454 10.668 27.1062 10.668 26.7526C10.668 26.399 10.8084 26.0598 11.0585 25.8098C11.3085 25.5597 11.6477 25.4193 12.0013 25.4193Z" fill="#5565AF"/>
</svg>
