<svg width="46" height="47" viewBox="0 0 46 47" fill="none" xmlns="http://www.w3.org/2000/svg">
<g filter="url(#filter0_d_3926_5770)">
<rect x="8" y="8.375" width="30" height="30" rx="15" fill="#212837"/>
<path fill-rule="evenodd" clip-rule="evenodd" d="M23 15.375C20.8783 15.375 18.8434 16.2179 17.3431 17.7181C15.8429 19.2184 15 21.2533 15 23.375C15 25.4967 15.8429 27.5316 17.3431 29.0319C18.8434 30.5321 20.8783 31.375 23 31.375C25.1217 31.375 27.1566 30.5321 28.6569 29.0319C30.1571 27.5316 31 25.4967 31 23.375C31 21.2533 30.1571 19.2184 28.6569 17.7181C27.1566 16.2179 25.1217 15.375 23 15.375ZM13 23.375C13 17.852 17.477 13.375 23 13.375C28.523 13.375 33 17.852 33 23.375C33 28.898 28.523 33.375 23 33.375C17.477 33.375 13 28.898 13 23.375Z" fill="#E37F47"/>
<path d="M18.3002 24.9754C18.7245 24.9754 19.1315 24.8068 19.4316 24.5068C19.7316 24.2067 19.9002 23.7997 19.9002 23.3754C19.9002 22.951 19.7316 22.5441 19.4316 22.244C19.1315 21.944 18.7245 21.7754 18.3002 21.7754C17.8758 21.7754 17.4689 21.944 17.1688 22.244C16.8688 22.5441 16.7002 22.951 16.7002 23.3754C16.7002 23.7997 16.8688 24.2067 17.1688 24.5068C17.4689 24.8068 17.8758 24.9754 18.3002 24.9754ZM23.0002 24.9754C23.4245 24.9754 23.8315 24.8068 24.1316 24.5068C24.4316 24.2067 24.6002 23.7997 24.6002 23.3754C24.6002 22.951 24.4316 22.5441 24.1316 22.244C23.8315 21.944 23.4245 21.7754 23.0002 21.7754C22.5758 21.7754 22.1689 21.944 21.8688 22.244C21.5688 22.5441 21.4002 22.951 21.4002 23.3754C21.4002 23.7997 21.5688 24.2067 21.8688 24.5068C22.1689 24.8068 22.5758 24.9754 23.0002 24.9754ZM27.7002 24.9754C28.1245 24.9754 28.5315 24.8068 28.8316 24.5068C29.1316 24.2067 29.3002 23.7997 29.3002 23.3754C29.3002 22.951 29.1316 22.5441 28.8316 22.244C28.5315 21.944 28.1245 21.7754 27.7002 21.7754C27.2759 21.7754 26.8689 21.944 26.5688 22.244C26.2688 22.5441 26.1002 22.951 26.1002 23.3754C26.1002 23.7997 26.2688 24.2067 26.5688 24.5068C26.8689 24.8068 27.2759 24.9754 27.7002 24.9754Z" fill="#E37F47"/>
</g>
<defs>
<filter id="filter0_d_3926_5770" x="0" y="0.375" width="46" height="46" filterUnits="userSpaceOnUse" color-interpolation-filters="sRGB">
<feFlood flood-opacity="0" result="BackgroundImageFix"/>
<feColorMatrix in="SourceAlpha" type="matrix" values="0 0 0 0 0 0 0 0 0 0 0 0 0 0 0 0 0 0 127 0" result="hardAlpha"/>
<feOffset/>
<feGaussianBlur stdDeviation="4"/>
<feComposite in2="hardAlpha" operator="out"/>
<feColorMatrix type="matrix" values="0 0 0 0 0 0 0 0 0 0 0 0 0 0 0 0 0 0 0.2 0"/>
<feBlend mode="normal" in2="BackgroundImageFix" result="effect1_dropShadow_3926_5770"/>
<feBlend mode="normal" in="SourceGraphic" in2="effect1_dropShadow_3926_5770" result="shape"/>
</filter>
</defs>
</svg>
