<svg width="28" height="28" viewBox="0 0 28 28" fill="none" xmlns="http://www.w3.org/2000/svg">
<path d="M20.1542 23.625L24.2083 19.6L22.9833 18.375L20.1542 21.1458L19.0167 20.0083L17.7917 21.2625L20.1542 23.625ZM7 10.5H21V8.16667H7V10.5ZM21 26.8333C19.3861 26.8333 18.0106 26.2644 16.8735 25.1265C15.7364 23.9886 15.1674 22.6131 15.1667 21C15.1659 19.3869 15.7348 18.0114 16.8735 16.8735C18.0122 15.7356 19.3877 15.1667 21 15.1667C22.6123 15.1667 23.9882 15.7356 25.1277 16.8735C26.2671 18.0114 26.8357 19.3869 26.8333 21C26.831 22.6131 26.2621 23.989 25.1265 25.1277C23.9909 26.2663 22.6154 26.8349 21 26.8333ZM3.5 25.6667V5.83333C3.5 5.19167 3.72867 4.64256 4.186 4.186C4.64333 3.72944 5.19244 3.50078 5.83333 3.5H22.1667C22.8083 3.5 23.3578 3.72867 23.8152 4.186C24.2725 4.64333 24.5008 5.19244 24.5 5.83333V13.6208C23.9556 13.3486 23.3866 13.1491 22.7932 13.0223C22.1997 12.8956 21.602 12.8326 21 12.8333H7V15.1667H15.2833C14.9528 15.4972 14.6467 15.8569 14.3652 16.2458C14.0836 16.6347 13.8355 17.0528 13.6208 17.5H7V19.8333H12.9208C12.8819 20.0278 12.8578 20.2176 12.8485 20.4027C12.8392 20.5878 12.8341 20.7869 12.8333 21C12.8333 21.8167 12.9453 22.5995 13.1693 23.3485C13.3933 24.0975 13.7286 24.8119 14.175 25.4917L14 25.6667L12.25 23.9167L10.5 25.6667L8.75 23.9167L7 25.6667L5.25 23.9167L3.5 25.6667Z" fill="#F4F4F4" fill-opacity="0.5"/>
</svg>
