<svg width="32" height="32" viewBox="0 0 32 32" fill="none" xmlns="http://www.w3.org/2000/svg">
<path d="M3.9987 26.6663C3.26537 26.6663 2.63781 26.4055 2.11603 25.8837C1.59425 25.3619 1.33292 24.7339 1.33203 23.9997V10.6663C1.33203 10.2886 1.46003 9.97212 1.71603 9.71701C1.97203 9.4619 2.28848 9.3339 2.66536 9.33301C3.04225 9.33212 3.35914 9.46012 3.61603 9.71701C3.87292 9.9739 4.00048 10.2903 3.9987 10.6663V23.9997H25.332C25.7098 23.9997 26.0267 24.1277 26.2827 24.3837C26.5387 24.6397 26.6663 24.9561 26.6654 25.333C26.6645 25.7099 26.5365 26.0268 26.2814 26.2837C26.0263 26.5406 25.7098 26.6681 25.332 26.6663H3.9987ZM9.33203 21.333C8.5987 21.333 7.97114 21.0721 7.44937 20.5503C6.92759 20.0286 6.66625 19.4006 6.66537 18.6663V7.99968C6.66537 7.26634 6.9267 6.63879 7.44937 6.11701C7.97203 5.59523 8.59959 5.3339 9.33203 5.33301H27.9987C28.732 5.33301 29.36 5.59434 29.8827 6.11701C30.4054 6.63967 30.6663 7.26723 30.6654 7.99968V18.6663C30.6654 19.3997 30.4045 20.0277 29.8827 20.5503C29.3609 21.073 28.7329 21.3339 27.9987 21.333H9.33203ZM11.9987 18.6663C11.9987 17.933 11.7378 17.3055 11.216 16.7837C10.6943 16.2619 10.0663 16.0006 9.33203 15.9997V18.6663H11.9987ZM25.332 18.6663H27.9987V15.9997C27.2654 15.9997 26.6378 16.261 26.116 16.7837C25.5943 17.3063 25.3329 17.9339 25.332 18.6663ZM18.6654 17.333C19.7765 17.333 20.7209 16.9441 21.4987 16.1663C22.2765 15.3886 22.6654 14.4441 22.6654 13.333C22.6654 12.2219 22.2765 11.2775 21.4987 10.4997C20.7209 9.7219 19.7765 9.33301 18.6654 9.33301C17.5543 9.33301 16.6098 9.7219 15.832 10.4997C15.0543 11.2775 14.6654 12.2219 14.6654 13.333C14.6654 14.4441 15.0543 15.3886 15.832 16.1663C16.6098 16.9441 17.5543 17.333 18.6654 17.333ZM9.33203 10.6663C10.0654 10.6663 10.6934 10.4055 11.216 9.88368C11.7387 9.3619 11.9996 8.7339 11.9987 7.99968H9.33203V10.6663ZM27.9987 10.6663V7.99968H25.332C25.332 8.73301 25.5934 9.36101 26.116 9.88368C26.6387 10.4063 27.2663 10.6672 27.9987 10.6663Z" fill="#FF5E5E"/>
</svg>
