<svg width="28" height="28" viewBox="0 0 28 28" fill="none" xmlns="http://www.w3.org/2000/svg">
<g clip-path="url(#clip0_4150_5603)">
<path d="M20.4166 19.6237L23.2633 21.2687L22.3883 22.7853L18.6666 20.6387V16.3337H20.4166V19.6237ZM27.9999 19.8337C27.9999 24.3487 24.3482 28.0003 19.8333 28.0003C15.3183 28.0003 11.6666 24.3487 11.6666 19.8337C11.6666 19.437 11.7016 19.052 11.7599 18.667H2.33325V4.66699H23.3332V12.4603C26.0866 13.7787 27.9999 16.5787 27.9999 19.8337ZM12.4599 16.3337C12.6699 15.9137 12.8916 15.517 13.1599 15.132C13.0549 15.167 12.9499 15.167 12.8333 15.167C10.8966 15.167 9.33325 13.6037 9.33325 11.667C9.33325 9.73033 10.8966 8.16699 12.8333 8.16699C14.7699 8.16699 16.3333 9.73033 16.3333 11.667C16.3333 11.9587 16.2866 12.2503 16.2166 12.5187C17.3132 11.982 18.5382 11.667 19.8333 11.667C20.2299 11.667 20.6149 11.702 20.9999 11.7603V9.33366C20.3811 9.33366 19.7876 9.08783 19.35 8.65024C18.9124 8.21266 18.6666 7.61916 18.6666 7.00033H6.99992C6.99992 8.29533 5.96158 9.33366 4.66658 9.33366V14.0003C5.28542 14.0003 5.87892 14.2462 6.3165 14.6837C6.75409 15.1213 6.99992 15.7148 6.99992 16.3337H12.4599ZM25.6666 19.8337C25.6666 16.6137 23.0532 14.0003 19.8333 14.0003C16.6132 14.0003 13.9999 16.6137 13.9999 19.8337C13.9999 23.0537 16.6132 25.667 19.8333 25.667C23.0532 25.667 25.6666 23.0537 25.6666 19.8337Z" fill="#F4F4F4" fill-opacity="0.5"/>
</g>
<defs>
<clipPath id="clip0_4150_5603">
<rect width="28" height="28" fill="white"/>
</clipPath>
</defs>
</svg>
