<svg width="24" height="25" viewBox="0 0 24 25" fill="none" xmlns="http://www.w3.org/2000/svg">
<path d="M19.5 2.5127H13.5C12.1193 2.5127 11 3.63198 11 5.0127V11.0127C11 12.3934 12.1193 13.5127 13.5 13.5127H19.5C20.8807 13.5127 22 12.3934 22 11.0127V5.0127C22 3.63198 20.8807 2.5127 19.5 2.5127Z" stroke="white" stroke-width="2.04878" stroke-linecap="round" stroke-linejoin="round"/>
<path d="M11 7.01367C8.97247 7.01732 7.91075 7.0671 7.23223 7.74561C6.5 8.47785 6.5 9.65636 6.5 12.0134V13.0134C6.5 15.3704 6.5 16.5489 7.23223 17.2812C7.96447 18.0134 9.14298 18.0134 11.5 18.0134H12.5C14.857 18.0134 16.0355 18.0134 16.7678 17.2812C17.4463 16.6027 17.4961 15.5409 17.4997 13.5134" stroke="white" stroke-width="2.04878" stroke-linecap="round" stroke-linejoin="round"/>
<path d="M6.5 11.5137C4.47247 11.5173 3.41075 11.5671 2.73223 12.2456C2 12.9779 2 14.1564 2 16.5134V17.5134C2 19.8704 2 21.0489 2.73223 21.7812C3.46447 22.5134 4.64298 22.5134 7 22.5134H8C10.357 22.5134 11.5355 22.5134 12.2678 21.7812C12.9463 21.1027 12.9961 20.0409 12.9997 18.0134" stroke="white" stroke-width="2.04878" stroke-linecap="round" stroke-linejoin="round"/>
</svg>
