<svg width="32" height="32" viewBox="0 0 32 32" fill="none" xmlns="http://www.w3.org/2000/svg">
<path d="M14.625 4H5C4.44687 4 4 4.44687 4 5V14.625C4 14.7625 4.1125 14.875 4.25 14.875H14.625C14.7625 14.875 14.875 14.7625 14.875 14.625V4.25C14.875 4.1125 14.7625 4 14.625 4ZM12.875 12.875H6V6H12.875V12.875ZM8.5625 10.5625H10.3125C10.45 10.5625 10.5625 10.45 10.5625 10.3125V8.5625C10.5625 8.425 10.45 8.3125 10.3125 8.3125H8.5625C8.425 8.3125 8.3125 8.425 8.3125 8.5625V10.3125C8.3125 10.45 8.425 10.5625 8.5625 10.5625ZM14.625 17.125H4.25C4.1125 17.125 4 17.2375 4 17.375V27C4 27.5531 4.44687 28 5 28H14.625C14.7625 28 14.875 27.8875 14.875 27.75V17.375C14.875 17.2375 14.7625 17.125 14.625 17.125ZM12.875 26H6V19.125H12.875V26ZM8.5625 23.6875H10.3125C10.45 23.6875 10.5625 23.575 10.5625 23.4375V21.6875C10.5625 21.55 10.45 21.4375 10.3125 21.4375H8.5625C8.425 21.4375 8.3125 21.55 8.3125 21.6875V23.4375C8.3125 23.575 8.425 23.6875 8.5625 23.6875ZM27 4H17.375C17.2375 4 17.125 4.1125 17.125 4.25V14.625C17.125 14.7625 17.2375 14.875 17.375 14.875H27.75C27.8875 14.875 28 14.7625 28 14.625V5C28 4.44687 27.5531 4 27 4ZM26 12.875H19.125V6H26V12.875ZM21.6875 10.5625H23.4375C23.575 10.5625 23.6875 10.45 23.6875 10.3125V8.5625C23.6875 8.425 23.575 8.3125 23.4375 8.3125H21.6875C21.55 8.3125 21.4375 8.425 21.4375 8.5625V10.3125C21.4375 10.45 21.55 10.5625 21.6875 10.5625ZM27.75 17.125H26.25C26.1125 17.125 26 17.2375 26 17.375V21.5625H23.5625V17.375C23.5625 17.2375 23.45 17.125 23.3125 17.125H17.375C17.2375 17.125 17.125 17.2375 17.125 17.375V27.75C17.125 27.8875 17.2375 28 17.375 28H18.875C19.0125 28 19.125 27.8875 19.125 27.75V20.125H21.5625V23.3125C21.5625 23.45 21.675 23.5625 21.8125 23.5625H27.75C27.8875 23.5625 28 23.45 28 23.3125V17.375C28 17.2375 27.8875 17.125 27.75 17.125ZM23.3125 26H21.8125C21.675 26 21.5625 26.1125 21.5625 26.25V27.75C21.5625 27.8875 21.675 28 21.8125 28H23.3125C23.45 28 23.5625 27.8875 23.5625 27.75V26.25C23.5625 26.1125 23.45 26 23.3125 26ZM27.75 26H26.25C26.1125 26 26 26.1125 26 26.25V27.75C26 27.8875 26.1125 28 26.25 28H27.75C27.8875 28 28 27.8875 28 27.75V26.25C28 26.1125 27.8875 26 27.75 26Z" fill="#F4F4F4"/>
</svg>
