<svg width="16" height="16" viewBox="0 0 16 16" fill="none" xmlns="http://www.w3.org/2000/svg">
<path d="M3.38333 8.00033H5.33333C5.45556 8.00033 5.57222 8.03099 5.68333 8.09233C5.79444 8.15366 5.87778 8.24522 5.93333 8.36699L6.66667 9.83366L8.73333 5.70033C8.85556 5.44477 9.05556 5.31699 9.33333 5.31699C9.61111 5.31699 9.81111 5.44477 9.93333 5.70033L11.0833 8.00033H12.6167C12.45 6.86699 11.9333 5.91699 11.0667 5.15033C10.2 4.38366 9.17778 4.00033 8 4.00033C6.82222 4.00033 5.8 4.38366 4.93333 5.15033C4.06667 5.91699 3.55 6.86699 3.38333 8.00033ZM8 13.3337C9.17778 13.3337 10.2 12.9503 11.0667 12.1837C11.9333 11.417 12.45 10.467 12.6167 9.33366H10.6667C10.5444 9.33366 10.4278 9.30322 10.3167 9.24233C10.2056 9.18144 10.1222 9.08966 10.0667 8.96699L9.33333 7.50033L7.26667 11.6337C7.14444 11.8892 6.94444 12.017 6.66667 12.017C6.38889 12.017 6.18889 11.8892 6.06667 11.6337L4.91667 9.33366H3.38333C3.55 10.467 4.06667 11.417 4.93333 12.1837C5.8 12.9503 6.82222 13.3337 8 13.3337ZM8 14.667C7.17778 14.667 6.40289 14.5088 5.67533 14.1923C4.94778 13.8759 4.31156 13.4452 3.76667 12.9003C3.22178 12.3554 2.79133 11.7192 2.47533 10.9917C2.15933 10.2641 2.00089 9.48922 2 8.66699H3.33333C3.33333 9.95588 3.78889 11.0559 4.7 11.967C5.61111 12.8781 6.71111 13.3337 8 13.3337C9.28889 13.3337 10.3889 12.8781 11.3 11.967C12.2111 11.0559 12.6667 9.95588 12.6667 8.66699H14C14 9.48922 13.8418 10.2643 13.5253 10.9923C13.2089 11.7203 12.7782 12.3563 12.2333 12.9003C11.6884 13.4443 11.0522 13.875 10.3247 14.1923C9.59711 14.5097 8.82222 14.6679 8 14.667ZM2 8.66699C2 7.84477 2.15844 7.06966 2.47533 6.34166C2.79222 5.61366 3.22267 4.97766 3.76667 4.43366C4.31067 3.88966 4.94689 3.45921 5.67533 3.14233C6.40378 2.82544 7.17867 2.66699 8 2.66699C8.68889 2.66699 9.35 2.7781 9.98333 3.00033C10.6167 3.22255 11.2111 3.54477 11.7667 3.96699L12.7 3.03366L13.6333 3.96699L12.7 4.90033C13.1222 5.45588 13.4444 6.05033 13.6667 6.68366C13.8889 7.31699 14 7.9781 14 8.66699H12.6667C12.6667 7.3781 12.2111 6.2781 11.3 5.36699C10.3889 4.45588 9.28889 4.00033 8 4.00033C6.71111 4.00033 5.61111 4.45588 4.7 5.36699C3.78889 6.2781 3.33333 7.3781 3.33333 8.66699H2ZM6 2.00033V0.666992H10V2.00033H6ZM8 13.3337C6.71111 13.3337 5.61111 12.8781 4.7 11.967C3.78889 11.0559 3.33333 9.95588 3.33333 8.66699C3.33333 7.3781 3.78889 6.2781 4.7 5.36699C5.61111 4.45588 6.71111 4.00033 8 4.00033C9.28889 4.00033 10.3889 4.45588 11.3 5.36699C12.2111 6.2781 12.6667 7.3781 12.6667 8.66699C12.6667 9.95588 12.2111 11.0559 11.3 11.967C10.3889 12.8781 9.28889 13.3337 8 13.3337Z" fill="#F4F4F4" fill-opacity="0.5"/>
</svg>
